<svg width="34" height="28" viewBox="0 0 38 32" fill="none" xmlns="http://www.w3.org/2000/svg">
<path fill-rule="evenodd" clip-rule="evenodd" d="M3 0C1.34315 0 0 1.34315 0 3V9V10V27C0 28.6569 1.34315 30 3 30H35C36.6569 30 38 28.6569 38 27V9C38 7.34315 36.6569 6 35 6H16V3C16 1.34315 14.6569 0 13 0H3Z" fill="#454545"/>
<path fill-rule="evenodd" clip-rule="evenodd" d="M3 2C1.34314 2 0 3.34315 0 5V11V12V29C0 30.6569 1.34314 32 3 32H35C36.6569 32 38 30.6569 38 29V11C38 9.34315 36.6569 8 35 8H16V5C16 3.34315 14.6569 2 13 2H3Z" fill="#242424"/>
</svg>
