<svg width="48" height="48" viewBox="0 0 48 48" fill="none" xmlns="http://www.w3.org/2000/svg">
<g filter="url(#filter0_d_7_327)">
<rect x="8.5" y="8.5" width="31" height="31" rx="0.5" fill="#EDEDED" stroke="#242424"/>
<path d="M12.0001 11C11.4478 11 11.0001 11.4477 11.0001 12L11.0001 21C11.0001 21.5523 11.4478 22 12.0001 22C12.5524 22 13.0001 21.5523 13.0001 21L13.0001 13L21.0001 13C21.5524 13 22.0001 12.5523 22.0001 12C22.0001 11.4477 21.5524 11 21.0001 11L12.0001 11ZM20.3072 18.8929L12.7072 11.2929L11.293 12.7071L18.893 20.3071L20.3072 18.8929Z" fill="black"/>
<path d="M37.6 12C37.6 11.4477 37.1523 11 36.6 11L27.6 11C27.0477 11 26.6 11.4477 26.6 12C26.6 12.5523 27.0477 13 27.6 13L35.6 13L35.6 21C35.6 21.5523 36.0477 22 36.6 22C37.1523 22 37.6 21.5523 37.6 21L37.6 12ZM29.7071 20.3071L37.3071 12.7071L35.8929 11.2929L28.2929 18.8929L29.7071 20.3071Z" fill="black"/>
<path d="M36.6 37.6C37.1523 37.6 37.6 37.1523 37.6 36.6L37.6 27.6C37.6 27.0477 37.1523 26.6 36.6 26.6C36.0477 26.6 35.6 27.0477 35.6 27.6L35.6 35.6L27.6 35.6C27.0477 35.6 26.6 36.0477 26.6 36.6C26.6 37.1523 27.0477 37.6 27.6 37.6L36.6 37.6ZM28.2929 29.7071L35.8929 37.3071L37.3071 35.8929L29.7071 28.2929L28.2929 29.7071Z" fill="black"/>
<path d="M11.0001 36.6C11.0001 37.1523 11.4478 37.6 12.0001 37.6L21.0001 37.6C21.5524 37.6 22.0001 37.1523 22.0001 36.6C22.0001 36.0477 21.5524 35.6 21.0001 35.6L13.0001 35.6L13.0001 27.6C13.0001 27.0477 12.5524 26.6 12.0001 26.6C11.4478 26.6 11.0001 27.0477 11.0001 27.6L11.0001 36.6ZM18.893 28.2929L11.293 35.8929L12.7072 37.3071L20.3072 29.7071L18.893 28.2929Z" fill="black"/>
<rect x="16" y="8" width="16" height="1" fill="#EDEDED"/>
<rect x="16" y="39" width="16" height="1" fill="#EDEDED"/>
<rect x="39" y="32" width="16" height="1" transform="rotate(-90 39 32)" fill="#EDEDED"/>
<rect x="8" y="32" width="16" height="1" transform="rotate(-90 8 32)" fill="#EDEDED"/>
</g>
<defs>
<filter id="filter0_d_7_327" x="0" y="0" width="48" height="48" filterUnits="userSpaceOnUse" color-interpolation-filters="sRGB">
<feFlood flood-opacity="0" result="BackgroundImageFix"/>
<feColorMatrix in="SourceAlpha" type="matrix" values="0 0 0 0 0 0 0 0 0 0 0 0 0 0 0 0 0 0 127 0" result="hardAlpha"/>
<feOffset/>
<feGaussianBlur stdDeviation="4"/>
<feComposite in2="hardAlpha" operator="out"/>
<feColorMatrix type="matrix" values="0 0 0 0 0 0 0 0 0 0 0 0 0 0 0 0 0 0 0.25 0"/>
<feBlend mode="normal" in2="BackgroundImageFix" result="effect1_dropShadow_7_327"/>
<feBlend mode="normal" in="SourceGraphic" in2="effect1_dropShadow_7_327" result="shape"/>
</filter>
</defs>
</svg>
