<svg width="59" height="35" viewBox="0 0 59 35" fill="none" xmlns="http://www.w3.org/2000/svg">
<rect width="53.7375" height="28.7063" rx="3" fill="#D9D9D9"/>
<rect x="26.239" y="20.2502" width="1.25947" height="12.9067" rx="0.629737" fill="#D9D9D9"/>
<rect x="1.25946" y="1.33517" width="51.2186" height="26.036" rx="2" fill="#EDEDED"/>
<path d="M19.7318 34.3209C19.7318 33.1864 20.6514 32.2668 21.7859 32.2668H31.7418C32.8762 32.2668 33.7959 33.1864 33.7959 34.3209V34.3209C33.7959 34.6612 33.52 34.9371 33.1796 34.9371H20.348C20.0076 34.9371 19.7318 34.6612 19.7318 34.3209V34.3209Z" fill="#D9D9D9"/>
<rect x="20.4932" y="4.45059" width="3.94682" height="8.45613" rx="1.97341" fill="#D9D9D9"/>
<rect x="30.8156" y="4.45059" width="3.94682" height="8.45613" rx="1.97341" fill="#D9D9D9"/>
<path d="M17.9125 17.1348C18.7727 20.992 27.901 27.2154 35.6732 22.5868" stroke="#D9D9D9" stroke-width="2" stroke-linecap="round"/>
<path d="M42.2721 21.0338L41.3896 20.7752L41.5348 21.4636L43.3594 30.1119L43.5174 30.8613L44.2873 30.4124L53.549 25.0126L54.3189 24.5637L53.3583 24.2823L42.2721 21.0338Z" fill="#D9D9D9" stroke="#EDEDED"/>
<mask id="path-9-outside-1_6_200" maskUnits="userSpaceOnUse" x="46.864" y="26.3423" width="9.33873" height="7.43581" fill="black">
<rect fill="white" x="46.864" y="26.3423" width="9.33873" height="7.43581"/>
<path d="M47.7278 27.8533L49.3731 26.894L54.2662 31.4028L52.6209 32.3621L47.7278 27.8533Z"/>
</mask>
<path d="M47.7278 27.8533L49.3731 26.894L54.2662 31.4028L52.6209 32.3621L47.7278 27.8533Z" fill="#D9D9D9"/>
<path d="M54.2662 31.4028L55.0016 32.0804L55.8655 31.5768L55.1301 30.8991L54.2662 31.4028ZM52.6209 32.3621L51.757 32.8657L52.4924 33.5434L53.3563 33.0397L52.6209 32.3621ZM48.5092 27.3977L53.4023 31.9065L55.1301 30.8991L50.237 26.3904L48.5092 27.3977ZM53.5308 30.7252L51.8855 31.6844L53.3563 33.0397L55.0016 32.0804L53.5308 30.7252ZM53.4848 31.8584L48.5917 27.3496L46.864 28.357L51.757 32.8657L53.4848 31.8584Z" fill="#EDEDED" mask="url(#path-9-outside-1_6_200)"/>
</svg>
