<svg width="276" height="177" viewBox="0 0 276 177" fill="none" xmlns="http://www.w3.org/2000/svg">
<g filter="url(#filter0_d_3_54)">
<rect x="10" y="10" width="256" height="129" rx="3" fill="#D9D9D9"/>
<rect x="135" y="101" width="6" height="58" rx="3" fill="#D9D9D9"/>
<rect x="16" y="16" width="244" height="117" rx="2" fill="#EDEDED"/>
<path d="M102 106.275C143.5 58.2754 147.455 134.541 180 106.275" stroke="#D9D9D9" stroke-width="7" stroke-linecap="round"/>
<rect x="114" y="27" width="13" height="38" rx="5" fill="#D9D9D9"/>
<rect x="148" y="27" width="13" height="38" rx="5" fill="#D9D9D9"/>
<path d="M104 164.231C104 159.133 108.133 155 113.231 155H161.769C166.867 155 171 159.133 171 164.231V164.231C171 165.76 169.76 167 168.231 167H106.769C105.24 167 104 165.76 104 164.231V164.231Z" fill="#D9D9D9"/>
</g>
<defs>
<filter id="filter0_d_3_54" x="0" y="0" width="276" height="177" filterUnits="userSpaceOnUse" color-interpolation-filters="sRGB">
<feFlood flood-opacity="0" result="BackgroundImageFix"/>
<feColorMatrix in="SourceAlpha" type="matrix" values="0 0 0 0 0 0 0 0 0 0 0 0 0 0 0 0 0 0 127 0" result="hardAlpha"/>
<feOffset/>
<feGaussianBlur stdDeviation="5"/>
<feComposite in2="hardAlpha" operator="out"/>
<feColorMatrix type="matrix" values="0 0 0 0 0 0 0 0 0 0 0 0 0 0 0 0 0 0 0.3 0"/>
<feBlend mode="normal" in2="BackgroundImageFix" result="effect1_dropShadow_3_54"/>
<feBlend mode="normal" in="SourceGraphic" in2="effect1_dropShadow_3_54" result="shape"/>
</filter>
</defs>
</svg>
