<svg width="43" height="29" viewBox="0 0 43 29" fill="none" xmlns="http://www.w3.org/2000/svg">
<path d="M13.5 26.5C7.30707 26.7617 2.20253 24.1067 2.00588 17.4045C1.99806 17.138 2.03529 16.8671 2.10891 16.6108C3.49029 11.802 5.09474 11.0728 9.14471 9.36189C9.70187 9.12651 10.1724 8.72371 10.5089 8.2211C13.4862 3.77369 15.9391 2.13551 21.2312 1.52963C21.4085 1.50934 21.5932 1.50642 21.771 1.52079C28.838 2.09224 31.3295 4.61824 33.3959 10.6181C33.7861 11.7513 34.7811 12.5542 35.9511 12.8139C39.3817 13.5756 40.7153 15.2946 41.4075 19.4104C41.4727 19.7979 41.4533 20.1969 41.3475 20.5754C39.7385 26.3345 36.8371 27.2318 30 26.5M22 29V13.5M22 13.5L16.5 20M22 13.5L27.5 20" stroke="black" stroke-width="3"/>
</svg>
